<?xml version="1.0" standalone="no"?>
<!DOCTYPE svg PUBLIC "-//W3C//DTD SVG 20010904//EN"
 "http://www.w3.org/TR/2001/REC-SVG-20010904/DTD/svg10.dtd">
<svg version="1.0" xmlns="http://www.w3.org/2000/svg"
 width="512.000000pt" height="512.000000pt" viewBox="0 0 512.000000 512.000000"
 preserveAspectRatio="xMidYMid meet">
<metadata>
Created by potrace 1.11, written by Peter Selinger 2001-2013
</metadata>
<g transform="translate(0.000000,512.000000) scale(0.100000,-0.100000)"
fill="#000000" stroke="none">
<path d="M2332 4828 c-743 -838 -752 -849 -752 -877 0 -16 9 -40 21 -55 17
-22 28 -26 70 -26 l49 0 0 -445 0 -445 -170 0 -170 0 0 240 c0 291 5 280 -119
280 -63 0 -80 3 -85 16 -3 9 -6 55 -6 104 0 84 -1 90 -26 109 -27 21 -59 26
-89 15 -31 -12 -45 -59 -45 -154 l0 -90 -75 0 c-67 0 -79 -3 -100 -25 l-25
-24 0 -1611 0 -1610 -75 0 c-63 0 -77 -3 -95 -22 -28 -31 -26 -79 6 -109 l26
-24 1881 0 c1035 0 1894 3 1909 8 33 9 62 59 52 90 -14 48 -32 57 -116 57
l-78 0 0 1338 c0 735 0 1462 0 1615 0 335 7 317 -125 317 l-85 0 3 101 c2 99
2 101 -26 125 -28 24 -60 30 -92 18 -31 -12 -45 -59 -45 -154 l0 -90 -75 0
c-67 0 -79 -3 -100 -25 l-25 -24 0 -236 0 -235 -170 0 -170 0 0 445 0 445 48
0 c60 0 92 28 92 81 0 28 -12 48 -68 110 -37 42 -249 279 -471 527 l-403 452
-44 0 -44 0 -188 -212z m342 -355 c80 -57 102 -162 52 -248 -41 -69 -128 -106
-205 -85 -107 29 -168 147 -126 248 48 114 180 155 279 85z m576 -1048 l0
-445 -90 0 -90 0 0 150 c0 156 -6 185 -49 234 -79 90 -246 65 -300 -46 -18
-39 -21 -62 -21 -191 l0 -147 -129 0 -129 0 -4 153 c-3 130 -6 157 -23 186
-68 115 -213 135 -299 41 -47 -52 -56 -92 -56 -247 l0 -133 -90 0 -90 0 0 445
0 445 685 0 685 0 0 -445z m-2030 -265 l0 -180 -125 0 -125 0 0 180 0 180 125
0 125 0 0 -180z m2940 0 l0 -180 -125 0 -125 0 0 180 0 180 125 0 125 0 0
-180z m-222 -1617 c0 -577 -2 -1056 -4 -1065 -5 -16 -19 -18 -115 -18 l-109 0
0 148 c0 210 -25 295 -117 393 -88 95 -192 134 -332 127 -106 -6 -178 -36
-252 -105 -63 -59 -92 -103 -119 -182 -17 -51 -20 -86 -20 -221 l0 -160 -305
0 -305 0 0 148 c0 206 -25 294 -111 387 -90 98 -198 140 -338 133 -108 -6
-179 -36 -256 -109 -110 -104 -135 -177 -135 -401 l0 -158 -110 0 -110 0 0
1065 0 1065 1369 0 1368 0 1 -1047z m-1981 -600 c29 -13 66 -41 83 -61 55 -67
60 -99 60 -389 l0 -263 -260 0 -260 0 0 273 c0 252 2 275 21 317 64 141 211
192 356 123z m1453 -1 c61 -30 113 -89 130 -150 5 -21 10 -150 10 -299 l0
-263 -260 0 -260 0 0 273 c0 264 1 273 24 322 24 52 79 109 125 127 78 32 149
29 231 -10z"/>
<path d="M1420 2280 l0 -81 78 3 77 3 0 75 0 75 -77 3 -78 3 0 -81z"/>
<path d="M1850 2280 l0 -80 75 0 75 0 0 80 0 80 -75 0 -75 0 0 -80z"/>
<path d="M2270 2280 l0 -80 80 0 80 0 0 80 0 80 -80 0 -80 0 0 -80z"/>
<path d="M2700 2280 l0 -81 78 3 77 3 3 78 3 77 -81 0 -80 0 0 -80z"/>
<path d="M3130 2280 l0 -80 75 0 75 0 0 80 0 80 -75 0 -75 0 0 -80z"/>
<path d="M3550 2280 l0 -80 80 0 80 0 0 80 0 80 -80 0 -80 0 0 -80z"/>
<path d="M1420 1890 l0 -81 78 3 77 3 3 78 3 77 -81 0 -80 0 0 -80z"/>
<path d="M1850 1890 l0 -80 75 0 75 0 0 80 0 80 -75 0 -75 0 0 -80z"/>
<path d="M2272 1893 l3 -78 75 0 75 0 3 78 3 77 -81 0 -81 0 3 -77z"/>
<path d="M2700 1890 l0 -81 78 3 77 3 3 78 3 77 -81 0 -80 0 0 -80z"/>
<path d="M3130 1890 l0 -80 75 0 75 0 0 80 0 80 -75 0 -75 0 0 -80z"/>
<path d="M3552 1893 l3 -78 78 -3 77 -3 0 81 0 80 -80 0 -81 0 3 -77z"/>
<path d="M1420 1505 l0 -75 80 0 80 0 0 75 0 75 -80 0 -80 0 0 -75z"/>
<path d="M1850 1505 l0 -75 75 0 75 0 0 75 0 75 -75 0 -75 0 0 -75z"/>
<path d="M2270 1505 l0 -75 80 0 80 0 0 75 0 75 -80 0 -80 0 0 -75z"/>
<path d="M2700 1505 l0 -75 80 0 80 0 0 75 0 75 -80 0 -80 0 0 -75z"/>
<path d="M3130 1505 l0 -75 75 0 75 0 0 75 0 75 -75 0 -75 0 0 -75z"/>
<path d="M3550 1505 l0 -75 80 0 80 0 0 75 0 75 -80 0 -80 0 0 -75z"/>
</g>
</svg>
